<svg width="79" height="40" viewBox="0 0 79 40" fill="none" xmlns="http://www.w3.org/2000/svg">
<path d="M4.6987 39.5643H0V0.437012H4.6987V39.5643Z" fill="#141414"/>
<path d="M14.4237 39.5643L11.7468 12.0443H11.6376L11.6922 19.6187V39.5643H7.4303V0.437012H13.8231L16.3909 28.7194H16.5001L19.0678 0.437012H25.4606V39.5643H21.1988V19.6187L21.2534 12.0443H21.1442L18.4672 39.5643H14.4237Z" fill="#141414"/>
<path d="M37.4803 0.437012L42.1791 39.5643H37.5896L36.6067 29.8645H32.2356L31.1981 39.5643H26.827L31.5257 0.437012H37.4803ZM32.6178 25.7771H36.1698L34.9685 14.0608L34.4771 8.72075H34.3679L33.8764 14.0608L32.6178 25.7771Z" fill="#141414"/>
<path d="M51.9042 15.0412V6.86636C51.9042 5.2856 51.2489 4.2508 49.9371 4.2508C48.6252 4.2508 47.9699 5.2856 47.9699 6.86636V33.1336C47.9699 34.7144 48.6252 35.7492 49.9371 35.7492C51.2489 35.7492 51.9042 34.7144 51.9042 33.1336V23.2705H49.7186V18.8563H56.4937V39.5643H52.341V37.7657C51.795 39.0741 50.6469 40 48.6252 40C45.6206 40 43.2712 37.6567 43.2712 33.8961V6.10388C43.2712 2.34325 46.112 0 49.9371 0C53.8167 0 56.4937 2.34325 56.4937 6.10388V15.0412H51.9042Z" fill="#141414"/>
<path d="M72.6661 6.10388V33.8961C72.6661 37.6567 69.8253 40 65.9456 40C62.1206 40 59.2252 37.6567 59.2252 33.8961V6.10388C59.2252 2.34325 62.1206 0 65.9456 0C69.8253 0 72.6661 2.34325 72.6661 6.10388ZM63.9239 6.86636V33.1336C63.9239 34.7144 64.6338 35.7492 65.9456 35.7492C67.2575 35.7492 67.9674 34.7144 67.9674 33.1336V6.86636C67.9674 5.2856 67.2575 4.2508 65.9456 4.2508C64.6338 4.2508 63.9239 5.28693 63.9239 6.86636Z" fill="#141414"/>
<path d="M74.0312 33.8416H78.6208V39.5642H74.0312V33.8416Z" fill="#141414"/>
</svg>
